<svg width="141" height="36" viewBox="0 0 141 36" fill="none" xmlns="http://www.w3.org/2000/svg">
<path d="M71.0983 25.7143C71.0983 26.5427 71.7698 27.2143 72.5983 27.2143C73.4267 27.2143 74.0983 26.5427 74.0983 25.7143V10.7143C74.0983 9.88587 73.4267 9.21429 72.5983 9.21429C71.7698 9.21429 71.0983 9.88587 71.0983 10.7143V25.7143ZM77.0983 31.7143C77.0983 32.5427 77.7698 33.2143 78.5983 33.2143C79.4267 33.2143 80.0983 32.5427 80.0983 31.7143V4.71429C80.0983 3.88587 79.4267 3.21429 78.5983 3.21429C77.7698 3.21429 77.0983 3.88587 77.0983 4.71429V31.7143ZM65.0983 19.7143C65.0983 20.5427 65.7698 21.2143 66.5983 21.2143C67.4267 21.2143 68.0983 20.5427 68.0983 19.7143V16.7143C68.0983 15.8859 67.4267 15.2143 66.5983 15.2143C65.7698 15.2143 65.0983 15.8859 65.0983 16.7143V19.7143ZM83.0983 25.7143C83.0983 26.5427 83.7698 27.2143 84.5983 27.2143C85.4267 27.2143 86.0983 26.5427 86.0983 25.7143V10.7143C86.0983 9.88587 85.4267 9.21429 84.5983 9.21429C83.7698 9.21429 83.0983 9.88587 83.0983 10.7143V25.7143ZM90.5983 15.2143C89.7698 15.2143 89.0983 15.8859 89.0983 16.7143V19.7143C89.0983 20.5427 89.7698 21.2143 90.5983 21.2143C91.4267 21.2143 92.0983 20.5427 92.0983 19.7143V16.7143C92.0983 15.8859 91.4267 15.2143 90.5983 15.2143Z" fill="#2E2E2E"/>
<path d="M100.959 19.4066C100.959 18.3626 101.169 17.4506 101.589 16.6706C102.021 15.8906 102.615 15.2906 103.371 14.8706C104.139 14.4506 105.015 14.2406 105.999 14.2406C107.259 14.2406 108.309 14.5706 109.149 15.2306C109.477 15.4843 109.761 15.778 110.002 16.1116C110.631 16.9834 109.805 18.0206 108.731 18.0206V18.0206C108.021 18.0206 107.455 17.4633 106.848 17.0956C106.598 16.9442 106.297 16.8686 105.945 16.8686C105.381 16.8686 104.931 17.0906 104.595 17.5346C104.259 17.9666 104.091 18.5906 104.091 19.4066C104.091 20.2226 104.259 20.8526 104.595 21.2966C104.931 21.7286 105.381 21.9446 105.945 21.9446C106.298 21.9446 106.6 21.8683 106.851 21.7158C107.455 21.3477 108.019 20.7926 108.727 20.7926V20.7926C109.802 20.7926 110.622 21.8309 109.987 22.6983C109.749 23.0228 109.47 23.3115 109.149 23.5646C108.297 24.2366 107.247 24.5726 105.999 24.5726C105.015 24.5726 104.139 24.3626 103.371 23.9426C102.615 23.5226 102.021 22.9226 101.589 22.1426C101.169 21.3626 100.959 20.4506 100.959 19.4066Z" fill="#2E2E2E"/>
<path d="M114.009 11.1086C114.859 11.1086 115.548 11.7976 115.548 12.6476V22.8896C115.548 23.7395 114.859 24.4286 114.009 24.4286V24.4286C113.159 24.4286 112.47 23.7395 112.47 22.8896V12.6476C112.47 11.7976 113.159 11.1086 114.009 11.1086V11.1086Z" fill="#2E2E2E"/>
<path d="M126.157 14.3846C127.007 14.3846 127.696 15.0736 127.696 15.9236V22.8896C127.696 23.7395 127.007 24.4286 126.157 24.4286H124.947C124.766 24.4286 124.618 24.2814 124.618 24.0999V24.0999C124.618 23.7789 124.151 23.6079 123.894 23.7992C123.725 23.9245 123.541 24.0383 123.34 24.1406C122.812 24.4046 122.224 24.5366 121.576 24.5366C120.808 24.5366 120.13 24.3686 119.542 24.0326C118.954 23.6846 118.498 23.1866 118.174 22.5386C117.85 21.8906 117.688 21.1286 117.688 20.2526V15.9146C117.688 15.0696 118.373 14.3846 119.218 14.3846V14.3846C120.063 14.3846 120.748 15.0696 120.748 15.9146V19.8386C120.748 20.5106 120.922 21.0326 121.27 21.4046C121.618 21.7766 122.086 21.9626 122.674 21.9626C123.274 21.9626 123.748 21.7766 124.096 21.4046C124.444 21.0326 124.618 20.5106 124.618 19.8386V15.9236C124.618 15.0736 125.307 14.3846 126.157 14.3846V14.3846Z" fill="#2E2E2E"/>
<path d="M132.985 14.1045C132.985 14.5903 133.799 14.9012 134.227 14.6726V14.6726C134.767 14.3846 135.385 14.2406 136.081 14.2406C136.909 14.2406 137.659 14.4506 138.331 14.8706C139.003 15.2906 139.531 15.8906 139.915 16.6706C140.311 17.4506 140.509 18.3566 140.509 19.3886C140.509 20.4206 140.311 21.3326 139.915 22.1246C139.531 22.9046 139.003 23.5106 138.331 23.9426C137.659 24.3626 136.909 24.5726 136.081 24.5726C135.373 24.5726 134.755 24.4346 134.227 24.1586C134.042 24.0576 133.871 23.9456 133.714 23.8225C133.464 23.6265 132.985 23.7927 132.985 24.1104V24.1104C132.985 24.2861 132.843 24.4286 132.667 24.4286H131.446C130.596 24.4286 129.907 23.7395 129.907 22.8896V12.6476C129.907 11.7976 130.596 11.1086 131.446 11.1086H131.949C132.521 11.1086 132.985 11.5726 132.985 12.1449V14.1045ZM137.377 19.3886C137.377 18.6206 137.161 18.0206 136.729 17.5886C136.309 17.1446 135.787 16.9226 135.163 16.9226C134.551 16.9226 134.029 17.1446 133.597 17.5886C133.177 18.0326 132.967 18.6386 132.967 19.4066C132.967 20.1746 133.177 20.7806 133.597 21.2246C134.029 21.6686 134.551 21.8906 135.163 21.8906C135.775 21.8906 136.297 21.6686 136.729 21.2246C137.161 20.7686 137.377 20.1566 137.377 19.3886Z" fill="#2E2E2E"/>
<path d="M12.816 14.2766C14.064 14.2766 15.054 14.6546 15.786 15.4106C16.53 16.1666 16.902 17.2166 16.902 18.5606V22.8986C16.902 23.7436 16.217 24.4286 15.372 24.4286V24.4286C14.527 24.4286 13.842 23.7436 13.842 22.8986V18.9746C13.842 18.3266 13.668 17.8286 13.32 17.4806C12.984 17.1206 12.516 16.9406 11.916 16.9406C11.316 16.9406 10.842 17.1206 10.494 17.4806C10.158 17.8286 9.99 18.3266 9.99 18.9746V22.8986C9.99 23.7436 9.305 24.4286 8.46 24.4286V24.4286C7.615 24.4286 6.93 23.7436 6.93 22.8986V18.9746C6.93 18.3266 6.756 17.8286 6.408 17.4806C6.072 17.1206 5.604 16.9406 5.004 16.9406C4.404 16.9406 3.93 17.1206 3.582 17.4806C3.246 17.8286 3.078 18.3266 3.078 18.9746V22.8896C3.078 23.7395 2.38897 24.4286 1.539 24.4286V24.4286C0.689034 24.4286 0 23.7395 0 22.8896V15.9236C0 15.0736 0.689034 14.3846 1.539 14.3846H2.76481C2.93778 14.3846 3.078 14.5248 3.078 14.6978V14.6978C3.078 14.9995 3.50487 15.1591 3.74889 14.9817C3.91824 14.8585 4.10261 14.7495 4.302 14.6546C4.806 14.4026 5.376 14.2766 6.012 14.2766C6.768 14.2766 7.44 14.4386 8.028 14.7626V14.7626C8.81385 15.1869 10.0814 15.2466 10.854 14.7986V14.7986C11.454 14.4506 12.108 14.2766 12.816 14.2766Z" fill="#2E2E2E"/>
<path d="M27.4337 14.3846C28.2837 14.3846 28.9727 15.0736 28.9727 15.9236V22.8896C28.9727 23.7395 28.2837 24.4286 27.4337 24.4286H26.2233C26.0418 24.4286 25.8947 24.2814 25.8947 24.0999V24.0999C25.8947 23.7789 25.4276 23.6079 25.1699 23.7992C25.0011 23.9245 24.8167 24.0383 24.6167 24.1406C24.0887 24.4046 23.5007 24.5366 22.8527 24.5366C22.0847 24.5366 21.4067 24.3686 20.8187 24.0326C20.2307 23.6846 19.7747 23.1866 19.4507 22.5386C19.1267 21.8906 18.9647 21.1286 18.9647 20.2526V15.9146C18.9647 15.0696 19.6497 14.3846 20.4947 14.3846V14.3846C21.3397 14.3846 22.0247 15.0696 22.0247 15.9146V19.8386C22.0247 20.5106 22.1987 21.0326 22.5467 21.4046C22.8947 21.7766 23.3627 21.9626 23.9507 21.9626C24.5507 21.9626 25.0247 21.7766 25.3727 21.4046C25.7207 21.0326 25.8947 20.5106 25.8947 19.8386V15.9236C25.8947 15.0736 26.5837 14.3846 27.4337 14.3846V14.3846Z" fill="#2E2E2E"/>
<path d="M35.2696 24.5726C34.3936 24.5726 33.6136 24.4226 32.9296 24.1226C32.2456 23.8226 31.7056 23.4146 31.3096 22.8986C31.2577 22.8294 31.2088 22.7592 31.1629 22.688C30.6787 21.9367 31.4052 21.1346 32.2991 21.1346H32.6797C33.2513 21.1346 33.7144 21.6376 34.1716 21.9806V21.9806C34.4596 22.1966 34.8136 22.3046 35.2336 22.3046C35.6176 22.3046 35.9116 22.2326 36.1156 22.0886C36.3316 21.9326 36.4396 21.7346 36.4396 21.4946C36.4396 21.2066 36.2896 20.9966 35.9896 20.8646C35.6896 20.7206 35.2036 20.5646 34.5316 20.3966C33.8116 20.2286 33.2116 20.0546 32.7316 19.8746C32.2516 19.6826 31.8376 19.3886 31.4896 18.9926C31.1416 18.5846 30.9676 18.0386 30.9676 17.3546C30.9676 16.7786 31.1236 16.2566 31.4356 15.7886C31.7596 15.3086 32.2276 14.9306 32.8396 14.6546C33.4636 14.3786 34.2016 14.2406 35.0536 14.2406C36.3136 14.2406 37.3036 14.5526 38.0236 15.1766C38.3541 15.4583 38.6209 15.7815 38.8242 16.1464C39.2388 16.8904 38.5421 17.6606 37.6904 17.6606H37.4165C36.8566 17.6606 36.4146 17.1749 35.9716 16.8326V16.8326C35.7196 16.6286 35.3836 16.5266 34.9636 16.5266C34.6036 16.5266 34.3276 16.5986 34.1356 16.7426C33.9436 16.8746 33.8476 17.0606 33.8476 17.3006C33.8476 17.5886 33.9976 17.8046 34.2976 17.9486C34.6096 18.0926 35.0896 18.2366 35.7376 18.3806C36.4816 18.5726 37.0876 18.7646 37.5556 18.9566C38.0236 19.1366 38.4316 19.4366 38.7796 19.8566C39.1396 20.2646 39.3256 20.8166 39.3376 21.5126C39.3376 22.1006 39.1696 22.6286 38.8336 23.0966C38.5096 23.5526 38.0356 23.9126 37.4116 24.1766C36.7996 24.4406 36.0856 24.5726 35.2696 24.5726Z" fill="#2E2E2E"/>
<path d="M42.7687 13.3406C42.2287 13.3406 41.7847 13.1846 41.4367 12.8726C41.1007 12.5486 40.9327 12.1526 40.9327 11.6846C40.9327 11.2046 41.1007 10.8086 41.4367 10.4966C41.7847 10.1726 42.2287 10.0106 42.7687 10.0106C43.2967 10.0106 43.7287 10.1726 44.0647 10.4966C44.4127 10.8086 44.5867 11.2046 44.5867 11.6846C44.5867 12.1526 44.4127 12.5486 44.0647 12.8726C43.7287 13.1846 43.2967 13.3406 42.7687 13.3406ZM42.7597 14.3846C43.6097 14.3846 44.2987 15.0736 44.2987 15.9236V22.8896C44.2987 23.7395 43.6097 24.4286 42.7597 24.4286V24.4286C41.9097 24.4286 41.2207 23.7395 41.2207 22.8896V15.9236C41.2207 15.0736 41.9097 14.3846 42.7597 14.3846V14.3846Z" fill="#2E2E2E"/>
<path d="M45.9173 19.4066C45.9173 18.3626 46.1273 17.4506 46.5473 16.6706C46.9793 15.8906 47.5733 15.2906 48.3293 14.8706C49.0973 14.4506 49.9733 14.2406 50.9573 14.2406C52.2173 14.2406 53.2673 14.5706 54.1073 15.2306C54.4349 15.4843 54.719 15.778 54.9597 16.1116C55.5886 16.9833 54.7634 18.0206 53.6885 18.0206V18.0206C52.9787 18.0206 52.4127 17.4633 51.8056 17.0956C51.5557 16.9442 51.2549 16.8686 50.9033 16.8686C50.3393 16.8686 49.8893 17.0906 49.5533 17.5346C49.2173 17.9666 49.0493 18.5906 49.0493 19.4066C49.0493 20.2226 49.2173 20.8526 49.5533 21.2966C49.8893 21.7286 50.3393 21.9446 50.9033 21.9446C51.2562 21.9446 51.5579 21.8683 51.8084 21.7158C52.413 21.3477 52.9773 20.7926 53.6852 20.7926V20.7926C54.76 20.7926 55.5794 21.8309 54.9447 22.6983C54.7072 23.0228 54.4281 23.3115 54.1073 23.5646C53.2553 24.2366 52.2053 24.5726 50.9573 24.5726C49.9733 24.5726 49.0973 24.3626 48.3293 23.9426C47.5733 23.5226 46.9793 22.9226 46.5473 22.1426C46.1273 21.3626 45.9173 20.4506 45.9173 19.4066Z" fill="#2E2E2E"/>
</svg>
