<svg width="18" height="18" viewBox="0 0 18 18" fill="none" xmlns="http://www.w3.org/2000/svg">
<path d="M17 10H1C0.45 10 0 10.45 0 11V17C0 17.55 0.45 18 1 18H17C17.55 18 18 17.55 18 17V11C18 10.45 17.55 10 17 10ZM16 16H2V12H16V16ZM4 15.5C4.83 15.5 5.5 14.83 5.5 14C5.5 13.17 4.83 12.5 4 12.5C3.17 12.5 2.5 13.17 2.5 14C2.5 14.83 3.17 15.5 4 15.5ZM17 0H1C0.45 0 0 0.45 0 1V7C0 7.55 0.45 8 1 8H17C17.55 8 18 7.55 18 7V1C18 0.45 17.55 0 17 0ZM16 6H2V2H16V6ZM4 5.5C4.83 5.5 5.5 4.83 5.5 4C5.5 3.17 4.83 2.5 4 2.5C3.17 2.5 2.5 3.17 2.5 4C2.5 4.83 3.17 5.5 4 5.5Z" fill="#2E2E2E"/>
</svg>
