<svg width="28" height="23" viewBox="0 0 28 23" fill="none" xmlns="http://www.w3.org/2000/svg">
<path d="M6.5 16.8913C6.5 17.7197 7.17157 18.3913 8 18.3913V18.3913C8.82843 18.3913 9.5 17.7197 9.5 16.8913V6.40414C9.5 5.57572 8.82843 4.90414 8 4.90414V4.90414C7.17157 4.90414 6.5 5.57572 6.5 6.40414V16.8913ZM12.5 21.387C12.5 22.2155 13.1716 22.887 14 22.887V22.887C14.8284 22.887 15.5 22.2155 15.5 21.387V1.90842C15.5 1.07999 14.8284 0.408417 14 0.408417V0.408417C13.1716 0.408417 12.5 1.07999 12.5 1.90842V21.387ZM0.5 12.3956C0.5 13.224 1.17157 13.8956 2 13.8956V13.8956C2.82843 13.8956 3.5 13.224 3.5 12.3956V10.8999C3.5 10.0714 2.82843 9.39987 2 9.39987V9.39987C1.17157 9.39987 0.5 10.0714 0.5 10.8999V12.3956ZM18.5 16.8913C18.5 17.7197 19.1716 18.3913 20 18.3913V18.3913C20.8284 18.3913 21.5 17.7197 21.5 16.8913V6.40414C21.5 5.57572 20.8284 4.90414 20 4.90414V4.90414C19.1716 4.90414 18.5 5.57572 18.5 6.40414V16.8913ZM26 9.39987C25.1716 9.39987 24.5 10.0714 24.5 10.8999V12.3956C24.5 13.224 25.1716 13.8956 26 13.8956V13.8956C26.8284 13.8956 27.5 13.224 27.5 12.3956V10.8999C27.5 10.0714 26.8284 9.39987 26 9.39987V9.39987Z" fill="#2E2E2E"/>
</svg>
